<?xml version="1.0" standalone="no"?>
<!DOCTYPE svg PUBLIC "-//W3C//DTD SVG 20010904//EN"
 "http://www.w3.org/TR/2001/REC-SVG-20010904/DTD/svg10.dtd">
<svg version="1.0" xmlns="http://www.w3.org/2000/svg"
 width="70.000000pt" height="70.000000pt" viewBox="0 0 70.000000 70.000000"
 preserveAspectRatio="xMidYMid meet">
<metadata>
Created by potrace 1.11, written by Peter Selinger 2001-2013
</metadata>
<g transform="translate(0.000000,70.000000) scale(0.100000,-0.100000)"
fill="#000000" stroke="none">
<path d="M177 464 c-4 -4 -7 -63 -7 -131 0 -115 1 -123 20 -123 16 0 19 8 22
57 2 31 8 58 14 60 5 2 30 -24 54 -57 27 -38 51 -60 63 -60 18 0 17 3 -7 35
-14 19 -37 50 -51 68 -14 19 -25 37 -25 42 0 4 21 31 47 58 34 36 43 52 33 55
-9 3 -38 -20 -72 -58 l-57 -63 -3 58 c-3 54 -14 75 -31 59z"/>
<path d="M418 459 c-26 -15 -39 -45 -32 -75 5 -19 22 -33 63 -52 45 -22 57
-33 59 -55 4 -36 -36 -54 -91 -39 -33 8 -38 7 -35 -7 2 -12 17 -17 60 -19 66
-3 98 18 98 67 0 32 -14 47 -73 76 -51 25 -66 47 -47 70 11 13 25 16 62 13 34
-4 48 -1 48 7 0 25 -78 34 -112 14z"/>
</g>
</svg>
